<?xml version="1.0" encoding="UTF-8" standalone="no"?>
<!DOCTYPE svg PUBLIC "-//W3C//DTD SVG 1.1//EN"
 "http://www.w3.org/Graphics/SVG/1.1/DTD/svg11.dtd">
<!-- Generated by graphviz version 2.43.0 (0)
 -->
<!-- Title: %3 Pages: 1 -->
<svg width="1083pt" height="1248pt"
 viewBox="72.00 72.00 1010.90 1176.00" xmlns="http://www.w3.org/2000/svg" xmlns:xlink="http://www.w3.org/1999/xlink">
<g id="graph0" class="graph" transform="scale(1 1) rotate(0) translate(144 1104)">
<title>%3</title>
<polygon fill="white" stroke="transparent" points="-72,72 -72,-1032 866.9,-1032 866.9,72 -72,72"/>
<g id="clust1" class="cluster">
<title>cluster_sources</title>
<path fill="white" stroke="green" d="M116.9,-890C116.9,-890 774.9,-890 774.9,-890 780.9,-890 786.9,-896 786.9,-902 786.9,-902 786.9,-940 786.9,-940 786.9,-946 780.9,-952 774.9,-952 774.9,-952 116.9,-952 116.9,-952 110.9,-952 104.9,-946 104.9,-940 104.9,-940 104.9,-902 104.9,-902 104.9,-896 110.9,-890 116.9,-890"/>
<text text-anchor="middle" x="445.9" y="-938.4" font-family="Times,serif" font-size="12.00">Data Sources</text>
</g>
<g id="clust2" class="cluster">
<title>cluster_transformers</title>
<path fill="white" stroke="blue" d="M51.9,-155C51.9,-155 765.9,-155 765.9,-155 771.9,-155 777.9,-161 777.9,-167 777.9,-167 777.9,-793 777.9,-793 777.9,-799 771.9,-805 765.9,-805 765.9,-805 51.9,-805 51.9,-805 45.9,-805 39.9,-799 39.9,-793 39.9,-793 39.9,-167 39.9,-167 39.9,-161 45.9,-155 51.9,-155"/>
<text text-anchor="middle" x="408.9" y="-791.4" font-family="Times,serif" font-size="12.00">Processors</text>
</g>
<g id="clust3" class="cluster">
<title>cluster_consumers</title>
<path fill="white" stroke="red" d="M49.9,-8C49.9,-8 163.9,-8 163.9,-8 169.9,-8 175.9,-14 175.9,-20 175.9,-20 175.9,-58 175.9,-58 175.9,-64 169.9,-70 163.9,-70 163.9,-70 49.9,-70 49.9,-70 43.9,-70 37.9,-64 37.9,-58 37.9,-58 37.9,-20 37.9,-20 37.9,-14 43.9,-8 49.9,-8"/>
<text text-anchor="middle" x="106.9" y="-56.4" font-family="Times,serif" font-size="12.00">Data Consumers</text>
</g>
<!-- CreateIncident -->
<g id="node1" class="node">
<title>CreateIncident</title>
<path fill="lightgreen" stroke="black" d="M201.9,-930C201.9,-930 117.9,-930 117.9,-930 111.9,-930 105.9,-924 105.9,-918 105.9,-918 105.9,-903 105.9,-903 105.9,-897 111.9,-891 117.9,-891 117.9,-891 201.9,-891 201.9,-891 207.9,-891 213.9,-897 213.9,-903 213.9,-903 213.9,-918 213.9,-918 213.9,-924 207.9,-930 201.9,-930"/>
<text text-anchor="middle" x="159.9" y="-908" font-family="Arial" font-size="10.00">Createincident</text>
</g>
<!-- GetCategoryByName -->
<g id="node6" class="node">
<title>GetCategoryByName</title>
<path fill="lightblue" stroke="black" d="M160.9,-195C160.9,-195 52.9,-195 52.9,-195 46.9,-195 40.9,-189 40.9,-183 40.9,-183 40.9,-168 40.9,-168 40.9,-162 46.9,-156 52.9,-156 52.9,-156 160.9,-156 160.9,-156 166.9,-156 172.9,-162 172.9,-168 172.9,-168 172.9,-183 172.9,-183 172.9,-189 166.9,-195 160.9,-195"/>
<text text-anchor="middle" x="106.9" y="-173" font-family="Arial" font-size="10.00">Getcategorybyname</text>
</g>
<!-- CreateIncident&#45;&gt;GetCategoryByName -->
<g id="edge21" class="edge">
<title>CreateIncident&#45;&gt;GetCategoryByName</title>
<path fill="none" stroke="purple" stroke-dasharray="5,2" d="M149.88,-890.78C-6.61,-582.59 -8.03,-567.98 99.12,-202.04"/>
<polygon fill="purple" stroke="purple" points="101.49,-202.67 101.11,-195.26 96.79,-201.29 101.49,-202.67"/>
</g>
<!-- SearchUsers -->
<g id="node9" class="node">
<title>SearchUsers</title>
<path fill="lightblue" stroke="black" d="M516.4,-636C516.4,-636 441.4,-636 441.4,-636 435.4,-636 429.4,-630 429.4,-624 429.4,-624 429.4,-609 429.4,-609 429.4,-603 435.4,-597 441.4,-597 441.4,-597 516.4,-597 516.4,-597 522.4,-597 528.4,-603 528.4,-609 528.4,-609 528.4,-624 528.4,-624 528.4,-630 522.4,-636 516.4,-636"/>
<text text-anchor="middle" x="478.9" y="-614" font-family="Arial" font-size="10.00">Searchusers</text>
</g>
<!-- CreateIncident&#45;&gt;SearchUsers -->
<g id="edge20" class="edge">
<title>CreateIncident&#45;&gt;SearchUsers</title>
<path fill="none" stroke="purple" stroke-dasharray="5,2" d="M199.66,-890.93C290.57,-845.16 311.39,-822.4 458.26,-641.88"/>
<polygon fill="purple" stroke="purple" points="460.35,-643.19 462.87,-636.22 456.55,-640.1 460.35,-643.19"/>
</g>
<!-- SearchSubcategories -->
<g id="node13" class="node">
<title>SearchSubcategories</title>
<path fill="lightcoral" stroke="black" d="M162.9,-48C162.9,-48 50.9,-48 50.9,-48 44.9,-48 38.9,-42 38.9,-36 38.9,-36 38.9,-21 38.9,-21 38.9,-15 44.9,-9 50.9,-9 50.9,-9 162.9,-9 162.9,-9 168.9,-9 174.9,-15 174.9,-21 174.9,-21 174.9,-36 174.9,-36 174.9,-42 168.9,-48 162.9,-48"/>
<text text-anchor="middle" x="106.9" y="-26" font-family="Arial" font-size="10.00">Searchsubcategories</text>
</g>
<!-- CreateIncident&#45;&gt;SearchSubcategories -->
<g id="edge22" class="edge">
<title>CreateIncident&#45;&gt;SearchSubcategories</title>
<path fill="none" stroke="purple" stroke-dasharray="5,2" d="M150.96,-890.79C-39.05,-471.75 -40.96,-456.78 97.72,-55.09"/>
<polygon fill="purple" stroke="purple" points="100.11,-55.67 100.08,-48.25 95.48,-54.07 100.11,-55.67"/>
</g>
<!-- CreateUser -->
<g id="node2" class="node">
<title>CreateUser</title>
<path fill="lightgreen" stroke="black" d="M367.4,-930C367.4,-930 298.4,-930 298.4,-930 292.4,-930 286.4,-924 286.4,-918 286.4,-918 286.4,-903 286.4,-903 286.4,-897 292.4,-891 298.4,-891 298.4,-891 367.4,-891 367.4,-891 373.4,-891 379.4,-897 379.4,-903 379.4,-903 379.4,-918 379.4,-918 379.4,-924 373.4,-930 367.4,-930"/>
<text text-anchor="middle" x="332.9" y="-908" font-family="Arial" font-size="10.00">Createuser</text>
</g>
<!-- GetCompanyByName -->
<g id="node5" class="node">
<title>GetCompanyByName</title>
<path fill="lightblue" stroke="black" d="M304.4,-783C304.4,-783 193.4,-783 193.4,-783 187.4,-783 181.4,-777 181.4,-771 181.4,-771 181.4,-756 181.4,-756 181.4,-750 187.4,-744 193.4,-744 193.4,-744 304.4,-744 304.4,-744 310.4,-744 316.4,-750 316.4,-756 316.4,-756 316.4,-771 316.4,-771 316.4,-777 310.4,-783 304.4,-783"/>
<text text-anchor="middle" x="248.9" y="-761" font-family="Arial" font-size="10.00">Getcompanybyname</text>
</g>
<!-- CreateUser&#45;&gt;GetCompanyByName -->
<g id="edge18" class="edge">
<title>CreateUser&#45;&gt;GetCompanyByName</title>
<path fill="none" stroke="purple" stroke-dasharray="5,2" d="M308.59,-890.95C282.33,-868.41 275.68,-853.42 256.86,-790.41"/>
<polygon fill="purple" stroke="purple" points="259.1,-789.34 254.76,-783.33 254.4,-790.74 259.1,-789.34"/>
</g>
<!-- SearchDepartments -->
<g id="node11" class="node">
<title>SearchDepartments</title>
<path fill="lightblue" stroke="black" d="M362.4,-195C362.4,-195 257.4,-195 257.4,-195 251.4,-195 245.4,-189 245.4,-183 245.4,-183 245.4,-168 245.4,-168 245.4,-162 251.4,-156 257.4,-156 257.4,-156 362.4,-156 362.4,-156 368.4,-156 374.4,-162 374.4,-168 374.4,-168 374.4,-183 374.4,-183 374.4,-189 368.4,-195 362.4,-195"/>
<text text-anchor="middle" x="309.9" y="-173" font-family="Arial" font-size="10.00">Searchdepartments</text>
</g>
<!-- CreateUser&#45;&gt;SearchDepartments -->
<g id="edge19" class="edge">
<title>CreateUser&#45;&gt;SearchDepartments</title>
<path fill="none" stroke="purple" stroke-dasharray="5,2" d="M323.62,-890.61C203.09,-631.92 203.05,-616.46 303.41,-202.26"/>
<polygon fill="purple" stroke="purple" points="305.86,-202.59 305.12,-195.21 301.09,-201.43 305.86,-202.59"/>
</g>
<!-- AddIncidentComment -->
<g id="node3" class="node">
<title>AddIncidentComment</title>
<path fill="lightgreen" stroke="black" d="M773.9,-930C773.9,-930 661.9,-930 661.9,-930 655.9,-930 649.9,-924 649.9,-918 649.9,-918 649.9,-903 649.9,-903 649.9,-897 655.9,-891 661.9,-891 661.9,-891 773.9,-891 773.9,-891 779.9,-891 785.9,-897 785.9,-903 785.9,-903 785.9,-918 785.9,-918 785.9,-924 779.9,-930 773.9,-930"/>
<text text-anchor="middle" x="717.9" y="-908" font-family="Arial" font-size="10.00">Addincidentcomment</text>
</g>
<!-- GetIncident -->
<g id="node8" class="node">
<title>GetIncident</title>
<path fill="lightblue" stroke="black" d="M670.9,-342C670.9,-342 600.9,-342 600.9,-342 594.9,-342 588.9,-336 588.9,-330 588.9,-330 588.9,-315 588.9,-315 588.9,-309 594.9,-303 600.9,-303 600.9,-303 670.9,-303 670.9,-303 676.9,-303 682.9,-309 682.9,-315 682.9,-315 682.9,-330 682.9,-330 682.9,-336 676.9,-342 670.9,-342"/>
<text text-anchor="middle" x="635.9" y="-320" font-family="Arial" font-size="10.00">Getincident</text>
</g>
<!-- AddIncidentComment&#45;&gt;GetIncident -->
<g id="edge23" class="edge">
<title>AddIncidentComment&#45;&gt;GetIncident</title>
<path fill="none" stroke="purple" stroke-dasharray="5,2" d="M723.23,-890.71C780.72,-676.55 778.44,-661.75 647.02,-348.95"/>
<polygon fill="purple" stroke="purple" points="649.26,-347.95 644.29,-342.44 644.74,-349.85 649.26,-347.95"/>
</g>
<!-- AddIncidentComment&#45;&gt;SearchUsers -->
<g id="edge24" class="edge">
<title>AddIncidentComment&#45;&gt;SearchUsers</title>
<path fill="none" stroke="purple" stroke-dasharray="5,2" d="M699.39,-890.6C641.57,-828.31 627.39,-810.4 498.38,-641.94"/>
<polygon fill="purple" stroke="purple" points="500.14,-640.21 493.94,-636.14 496.25,-643.18 500.14,-640.21"/>
</g>
<!-- CreateIncidentTask -->
<g id="node4" class="node">
<title>CreateIncidentTask</title>
<path fill="lightgreen" stroke="black" d="M565.9,-930C565.9,-930 463.9,-930 463.9,-930 457.9,-930 451.9,-924 451.9,-918 451.9,-918 451.9,-903 451.9,-903 451.9,-897 457.9,-891 463.9,-891 463.9,-891 565.9,-891 565.9,-891 571.9,-891 577.9,-897 577.9,-903 577.9,-903 577.9,-918 577.9,-918 577.9,-924 571.9,-930 565.9,-930"/>
<text text-anchor="middle" x="514.9" y="-908" font-family="Arial" font-size="10.00">Createincidenttask</text>
</g>
<!-- CreateIncidentTask&#45;&gt;GetIncident -->
<g id="edge25" class="edge">
<title>CreateIncidentTask&#45;&gt;GetIncident</title>
<path fill="none" stroke="purple" stroke-dasharray="5,2" d="M528.76,-890.78C663.85,-698.31 666.42,-682.69 638.2,-349.58"/>
<polygon fill="purple" stroke="purple" points="640.6,-348.92 637.57,-342.15 635.72,-349.34 640.6,-348.92"/>
</g>
<!-- CreateIncidentTask&#45;&gt;SearchUsers -->
<g id="edge26" class="edge">
<title>CreateIncidentTask&#45;&gt;SearchUsers</title>
<path fill="none" stroke="purple" stroke-dasharray="5,2" d="M514.65,-890.86C513.66,-822.64 511.34,-805.97 483.53,-643.54"/>
<polygon fill="purple" stroke="purple" points="485.87,-642.68 482.28,-636.2 481.04,-643.51 485.87,-642.68"/>
</g>
<!-- GetCompanyByName&#45;&gt;SearchUsers -->
<g id="edge1" class="edge">
<title>GetCompanyByName&#45;&gt;SearchUsers</title>
<path fill="none" stroke="black" stroke-width="1.5" d="M316.68,-747.79C357.41,-734.48 382.42,-712.24 453.92,-641.33"/>
<polygon fill="black" stroke="black" stroke-width="1.5" points="455.91,-642.81 459.15,-636.14 452.46,-639.34 455.91,-642.81"/>
</g>
<!-- SearchIncidents -->
<g id="node10" class="node">
<title>SearchIncidents</title>
<path fill="lightblue" stroke="black" d="M356.9,-489C356.9,-489 266.9,-489 266.9,-489 260.9,-489 254.9,-483 254.9,-477 254.9,-477 254.9,-462 254.9,-462 254.9,-456 260.9,-450 266.9,-450 266.9,-450 356.9,-450 356.9,-450 362.9,-450 368.9,-456 368.9,-462 368.9,-462 368.9,-477 368.9,-477 368.9,-483 362.9,-489 356.9,-489"/>
<text text-anchor="middle" x="311.9" y="-467" font-family="Arial" font-size="10.00">Searchincidents</text>
</g>
<!-- GetCompanyByName&#45;&gt;SearchIncidents -->
<g id="edge3" class="edge">
<title>GetCompanyByName&#45;&gt;SearchIncidents</title>
<path fill="none" stroke="black" stroke-width="1.5" d="M246.98,-743.85C239.35,-663.3 243.09,-648.36 301.71,-495.95"/>
<polygon fill="black" stroke="black" stroke-width="1.5" points="304.14,-496.48 304.37,-489.06 299.56,-494.72 304.14,-496.48"/>
</g>
<!-- GetCompanyByName&#45;&gt;SearchDepartments -->
<g id="edge2" class="edge">
<title>GetCompanyByName&#45;&gt;SearchDepartments</title>
<path fill="none" stroke="black" stroke-width="1.5" d="M243.27,-743.94C164.22,-469.15 164.68,-454.62 296.39,-201.43"/>
<polygon fill="black" stroke="black" stroke-width="1.5" points="298.67,-202.37 299.73,-195.03 294.32,-200.1 298.67,-202.37"/>
</g>
<!-- GetCategoryByName&#45;&gt;SearchSubcategories -->
<g id="edge17" class="edge">
<title>GetCategoryByName&#45;&gt;SearchSubcategories</title>
<path fill="none" stroke="black" stroke-width="1.5" d="M103.09,-155.58C91.81,-96.18 90.03,-80.68 97.74,-54.96"/>
<polygon fill="black" stroke="black" stroke-width="1.5" points="100.11,-55.58 99.9,-48.16 95.44,-54.09 100.11,-55.58"/>
</g>
<!-- GetIncidentComments -->
<g id="node7" class="node">
<title>GetIncidentComments</title>
<path fill="lightblue" stroke="black" d="M574.9,-195C574.9,-195 458.9,-195 458.9,-195 452.9,-195 446.9,-189 446.9,-183 446.9,-183 446.9,-168 446.9,-168 446.9,-162 452.9,-156 458.9,-156 458.9,-156 574.9,-156 574.9,-156 580.9,-156 586.9,-162 586.9,-168 586.9,-168 586.9,-183 586.9,-183 586.9,-189 580.9,-195 574.9,-195"/>
<text text-anchor="middle" x="516.9" y="-173" font-family="Arial" font-size="10.00">Getincidentcomments</text>
</g>
<!-- GetIncidentComments&#45;&gt;SearchUsers -->
<g id="edge15" class="edge">
<title>GetIncidentComments&#45;&gt;SearchUsers</title>
<path fill="none" stroke="black" stroke-width="1.5" d="M488.52,-596.76C582.15,-404.45 584.28,-390.14 525.25,-202"/>
<polygon fill="black" stroke="black" stroke-width="1.5" points="527.56,-201.18 523.12,-195.24 522.88,-202.65 527.56,-201.18"/>
</g>
<!-- GetIncident&#45;&gt;GetCategoryByName -->
<g id="edge10" class="edge">
<title>GetIncident&#45;&gt;GetCategoryByName</title>
<path fill="none" stroke="purple" stroke-dasharray="5,2" d="M605.08,-302.78C381.06,-159.59 348.28,-144.06 180.22,-165.46"/>
<polygon fill="purple" stroke="purple" points="179.78,-163.04 173.15,-166.37 180.41,-167.9 179.78,-163.04"/>
</g>
<!-- GetIncident&#45;&gt;GetIncidentComments -->
<g id="edge12" class="edge">
<title>GetIncident&#45;&gt;GetIncidentComments</title>
<path fill="none" stroke="black" stroke-width="1.5" d="M628.49,-302.8C603.75,-237.39 594.95,-220.15 559.78,-198.79"/>
<polygon fill="black" stroke="black" stroke-width="1.5" points="560.68,-196.47 553.4,-195.03 558.19,-200.69 560.68,-196.47"/>
</g>
<!-- GetIncident&#45;&gt;SearchUsers -->
<g id="edge8" class="edge">
<title>GetIncident&#45;&gt;SearchUsers</title>
<path fill="none" stroke="black" stroke-width="1.5" d="M498.24,-596.9C615.56,-477.83 623.97,-464.1 633.71,-349.22"/>
<polygon fill="black" stroke="black" stroke-width="1.5" points="636.16,-349.41 634.3,-342.23 631.27,-349 636.16,-349.41"/>
</g>
<!-- GetIncident&#45;&gt;SearchDepartments -->
<g id="edge9" class="edge">
<title>GetIncident&#45;&gt;SearchDepartments</title>
<path fill="none" stroke="black" stroke-width="1.5" d="M617.75,-302.81C529.09,-206.96 509.01,-192.84 382.02,-181.32"/>
<polygon fill="black" stroke="black" stroke-width="1.5" points="381.89,-178.85 374.7,-180.67 381.45,-183.73 381.89,-178.85"/>
</g>
<!-- GetIncidentTasks -->
<g id="node12" class="node">
<title>GetIncidentTasks</title>
<path fill="lightblue" stroke="black" d="M764.9,-195C764.9,-195 670.9,-195 670.9,-195 664.9,-195 658.9,-189 658.9,-183 658.9,-183 658.9,-168 658.9,-168 658.9,-162 664.9,-156 670.9,-156 670.9,-156 764.9,-156 764.9,-156 770.9,-156 776.9,-162 776.9,-168 776.9,-168 776.9,-183 776.9,-183 776.9,-189 770.9,-195 764.9,-195"/>
<text text-anchor="middle" x="717.9" y="-173" font-family="Arial" font-size="10.00">Getincidenttasks</text>
</g>
<!-- GetIncident&#45;&gt;GetIncidentTasks -->
<g id="edge13" class="edge">
<title>GetIncident&#45;&gt;GetIncidentTasks</title>
<path fill="none" stroke="black" stroke-width="1.5" d="M648.86,-302.77C688.48,-242.4 698.28,-226.59 708.21,-201.63"/>
<polygon fill="black" stroke="black" stroke-width="1.5" points="710.51,-202.47 710.75,-195.06 705.94,-200.7 710.51,-202.47"/>
</g>
<!-- GetIncident&#45;&gt;SearchSubcategories -->
<g id="edge11" class="edge">
<title>GetIncident&#45;&gt;SearchSubcategories</title>
<path fill="none" stroke="black" stroke-width="1.5" d="M615.06,-302.68C385.07,-84.03 353.74,-58.29 181.99,-37.01"/>
<polygon fill="black" stroke="black" stroke-width="1.5" points="182.27,-34.58 175.03,-36.16 181.68,-39.44 182.27,-34.58"/>
</g>
<!-- SearchUsers&#45;&gt;SearchIncidents -->
<g id="edge5" class="edge">
<title>SearchUsers&#45;&gt;SearchIncidents</title>
<path fill="none" stroke="black" stroke-width="1.5" d="M429.35,-597.59C368.72,-573.19 356.41,-559.04 324.75,-495.6"/>
<polygon fill="black" stroke="black" stroke-width="1.5" points="326.94,-494.49 321.63,-489.31 322.55,-496.67 326.94,-494.49"/>
</g>
<!-- SearchUsers&#45;&gt;SearchDepartments -->
<g id="edge4" class="edge">
<title>SearchUsers&#45;&gt;SearchDepartments</title>
<path fill="none" stroke="black" stroke-width="1.5" d="M483.02,-596.92C477.25,-525.47 385.12,-281.53 335.41,-201.15"/>
<polygon fill="black" stroke="black" stroke-width="1.5" points="337.45,-199.78 331.62,-195.2 333.32,-202.42 337.45,-199.78"/>
</g>
<!-- SearchIncidents&#45;&gt;GetIncident -->
<g id="edge14" class="edge">
<title>SearchIncidents&#45;&gt;GetIncident</title>
<path fill="none" stroke="black" stroke-width="1.5" d="M333.86,-449.71C454.43,-341.26 475.89,-326.93 581.55,-323.56"/>
<polygon fill="black" stroke="black" stroke-width="1.5" points="581.71,-326.01 588.63,-323.36 581.56,-321.11 581.71,-326.01"/>
</g>
<!-- SearchDepartments&#45;&gt;SearchUsers -->
<g id="edge6" class="edge">
<title>SearchDepartments&#45;&gt;SearchUsers</title>
<path fill="none" stroke="black" stroke-width="1.5" d="M457.19,-596.8C410.06,-525.59 317.71,-284.14 306.6,-202.47"/>
<polygon fill="black" stroke="black" stroke-width="1.5" points="308.99,-201.77 305.79,-195.08 304.12,-202.3 308.99,-201.77"/>
</g>
<!-- SearchDepartments&#45;&gt;SearchIncidents -->
<g id="edge7" class="edge">
<title>SearchDepartments&#45;&gt;SearchIncidents</title>
<path fill="none" stroke="black" stroke-width="1.5" d="M303.94,-449.9C255.68,-330.71 254.69,-317.07 299.56,-201.88"/>
<polygon fill="black" stroke="black" stroke-width="1.5" points="301.89,-202.64 302.15,-195.23 297.33,-200.86 301.89,-202.64"/>
</g>
<!-- GetIncidentTasks&#45;&gt;SearchUsers -->
<g id="edge16" class="edge">
<title>GetIncidentTasks&#45;&gt;SearchUsers</title>
<path fill="none" stroke="black" stroke-width="1.5" d="M498.57,-596.76C690.02,-404.55 698.88,-390.16 715.56,-202.28"/>
<polygon fill="black" stroke="black" stroke-width="1.5" points="718,-202.42 716.18,-195.24 713.12,-201.99 718,-202.42"/>
</g>
</g>
</svg>
