<?xml version="1.0" encoding="UTF-8" standalone="no"?>
<!DOCTYPE svg PUBLIC "-//W3C//DTD SVG 1.1//EN"
 "http://www.w3.org/Graphics/SVG/1.1/DTD/svg11.dtd">
<!-- Generated by graphviz version 2.43.0 (0)
 -->
<!-- Title: %3 Pages: 1 -->
<svg width="2112pt" height="1767pt"
 viewBox="72.00 72.00 2040.00 1695.00" xmlns="http://www.w3.org/2000/svg" xmlns:xlink="http://www.w3.org/1999/xlink">
<g id="graph0" class="graph" transform="scale(1 1) rotate(0) translate(144 1623)">
<title>%3</title>
<polygon fill="white" stroke="transparent" points="-72,72 -72,-1551 1896,-1551 1896,72 -72,72"/>
<!-- GetCompanyByName -->
<g id="node1" class="node">
<title>GetCompanyByName</title>
<g id="a_node1"><a xlink:title="Read API: GetCompanyByName">
<path fill="lightgreen" stroke="black" d="M1162,-1276C1162,-1276 1028,-1276 1028,-1276 1022,-1276 1016,-1270 1016,-1264 1016,-1264 1016,-1230 1016,-1230 1016,-1224 1022,-1218 1028,-1218 1028,-1218 1162,-1218 1162,-1218 1168,-1218 1174,-1224 1174,-1230 1174,-1230 1174,-1264 1174,-1264 1174,-1270 1168,-1276 1162,-1276"/>
<text text-anchor="middle" x="1095" y="-1244.2" font-family="Arial" font-size="11.00">Getcompanybyname</text>
</a>
</g>
</g>
<!-- SearchUsers -->
<g id="node2" class="node">
<title>SearchUsers</title>
<g id="a_node2"><a xlink:title="Read API: SearchUsers">
<path fill="lightgreen" stroke="black" d="M810,-1073C810,-1073 690,-1073 690,-1073 684,-1073 678,-1067 678,-1061 678,-1061 678,-1027 678,-1027 678,-1021 684,-1015 690,-1015 690,-1015 810,-1015 810,-1015 816,-1015 822,-1021 822,-1027 822,-1027 822,-1061 822,-1061 822,-1067 816,-1073 810,-1073"/>
<text text-anchor="middle" x="750" y="-1041.2" font-family="Arial" font-size="11.00">Searchusers</text>
</a>
</g>
</g>
<!-- GetCompanyByName&#45;&gt;SearchUsers -->
<g id="edge1" class="edge">
<title>GetCompanyByName&#45;&gt;SearchUsers</title>
<g id="a_edge1"><a xlink:title="Explicit: company_id → company_id">
<path fill="none" stroke="black" stroke-width="1.5" d="M1015.81,-1235.18C932.73,-1219.64 901.81,-1194.62 785.19,-1078.99"/>
<polygon fill="black" stroke="black" stroke-width="1.5" points="786.86,-1076.7 779.21,-1073.06 782.92,-1080.68 786.86,-1076.7"/>
</a>
</g>
<text text-anchor="middle" x="899" y="-1143.3" font-family="Arial" font-size="9.00">company id</text>
</g>
<!-- SearchDepartments -->
<g id="node3" class="node">
<title>SearchDepartments</title>
<g id="a_node3"><a xlink:title="Read API: SearchDepartments">
<path fill="lightgreen" stroke="black" d="M1355.5,-870C1355.5,-870 1226.5,-870 1226.5,-870 1220.5,-870 1214.5,-864 1214.5,-858 1214.5,-858 1214.5,-824 1214.5,-824 1214.5,-818 1220.5,-812 1226.5,-812 1226.5,-812 1355.5,-812 1355.5,-812 1361.5,-812 1367.5,-818 1367.5,-824 1367.5,-824 1367.5,-858 1367.5,-858 1367.5,-864 1361.5,-870 1355.5,-870"/>
<text text-anchor="middle" x="1291" y="-838.2" font-family="Arial" font-size="11.00">Searchdepartments</text>
</a>
</g>
</g>
<!-- GetCompanyByName&#45;&gt;SearchDepartments -->
<g id="edge2" class="edge">
<title>GetCompanyByName&#45;&gt;SearchDepartments</title>
<g id="a_edge2"><a xlink:title="Explicit: company_id → company_id">
<path fill="none" stroke="black" stroke-width="1.5" d="M1128.71,-1217.84C1251.41,-1110.91 1259.96,-1088.87 1286.36,-878.32"/>
<polygon fill="black" stroke="black" stroke-width="1.5" points="1289.17,-878.39 1287.39,-870.1 1283.62,-877.69 1289.17,-878.39"/>
</a>
</g>
<text text-anchor="middle" x="1266" y="-1041.8" font-family="Arial" font-size="9.00">company id</text>
</g>
<!-- SearchIncidents -->
<g id="node5" class="node">
<title>SearchIncidents</title>
<g id="a_node5"><a xlink:title="Read API: SearchIncidents">
<path fill="lightgreen" stroke="black" d="M1065,-667C1065,-667 945,-667 945,-667 939,-667 933,-661 933,-655 933,-655 933,-621 933,-621 933,-615 939,-609 945,-609 945,-609 1065,-609 1065,-609 1071,-609 1077,-615 1077,-621 1077,-621 1077,-655 1077,-655 1077,-661 1071,-667 1065,-667"/>
<text text-anchor="middle" x="1005" y="-635.2" font-family="Arial" font-size="11.00">Searchincidents</text>
</a>
</g>
</g>
<!-- GetCompanyByName&#45;&gt;SearchIncidents -->
<g id="edge3" class="edge">
<title>GetCompanyByName&#45;&gt;SearchIncidents</title>
<g id="a_edge3"><a xlink:title="Explicit: company_id → company_id">
<path fill="none" stroke="black" stroke-width="1.5" d="M1099.87,-1217.78C1129.09,-1040.95 1124.68,-1017.94 1016.61,-674.85"/>
<polygon fill="black" stroke="black" stroke-width="1.5" points="1019.28,-673.99 1014.2,-667.2 1013.94,-675.67 1019.28,-673.99"/>
</a>
</g>
<text text-anchor="middle" x="1140" y="-940.3" font-family="Arial" font-size="9.00">company id</text>
</g>
<!-- SearchUsers&#45;&gt;SearchDepartments -->
<g id="edge4" class="edge">
<title>SearchUsers&#45;&gt;SearchDepartments</title>
<g id="a_edge4"><a xlink:title="Explicit: department_id → department_id">
<path fill="none" stroke="black" stroke-width="1.5" d="M822.16,-1046.42C1036.15,-1052.56 1066.6,-1037.89 1251.84,-875.45"/>
<polygon fill="black" stroke="black" stroke-width="1.5" points="1253.76,-877.49 1257.93,-870.11 1250.07,-873.28 1253.76,-877.49"/>
</a>
</g>
<text text-anchor="middle" x="1052.5" y="-940.3" font-family="Arial" font-size="9.00">department id</text>
</g>
<!-- SearchUsers&#45;&gt;SearchIncidents -->
<g id="edge5" class="edge">
<title>SearchUsers&#45;&gt;SearchIncidents</title>
<g id="a_edge5"><a xlink:title="Explicit: user_id → reported_by">
<path fill="none" stroke="black" stroke-width="1.5" d="M787.04,-1014.89C884.19,-937.32 898.28,-909.56 990.46,-675.03"/>
<polygon fill="black" stroke="black" stroke-width="1.5" points="993.17,-675.79 993.49,-667.32 987.96,-673.74 993.17,-675.79"/>
</a>
</g>
<text text-anchor="middle" x="997" y="-838.8" font-family="Arial" font-size="9.00">user id → reported by</text>
</g>
<!-- SearchDepartments&#45;&gt;SearchUsers -->
<g id="edge6" class="edge">
<title>SearchDepartments&#45;&gt;SearchUsers</title>
<g id="a_edge6"><a xlink:title="Explicit: manager_id → user_id">
<path fill="none" stroke="black" stroke-width="1.5" d="M822.12,-1042.3C1070.72,-1035.76 1100.27,-1023.29 1254.72,-875.82"/>
<polygon fill="black" stroke="black" stroke-width="1.5" points="1256.89,-877.61 1260.74,-870.06 1253.02,-873.56 1256.89,-877.61"/>
</a>
</g>
<text text-anchor="middle" x="976" y="-940.3" font-family="Arial" font-size="9.00">manager id → user id</text>
</g>
<!-- SearchDepartments&#45;&gt;SearchIncidents -->
<g id="edge7" class="edge">
<title>SearchDepartments&#45;&gt;SearchIncidents</title>
<g id="a_edge7"><a xlink:title="Explicit: department_id → department_id">
<path fill="none" stroke="black" stroke-width="1.5" d="M1240.55,-811.83C1194.61,-784.32 1163.32,-760.87 1049.15,-672.28"/>
<polygon fill="black" stroke="black" stroke-width="1.5" points="1050.62,-669.88 1042.59,-667.19 1047.19,-674.31 1050.62,-669.88"/>
</a>
</g>
<text text-anchor="middle" x="1258.5" y="-737.3" font-family="Arial" font-size="9.00">department id</text>
</g>
<!-- GetIncident -->
<g id="node4" class="node">
<title>GetIncident</title>
<g id="a_node4"><a xlink:title="Read API: GetIncident">
<path fill="lightgreen" stroke="black" d="M893,-464C893,-464 773,-464 773,-464 767,-464 761,-458 761,-452 761,-452 761,-418 761,-418 761,-412 767,-406 773,-406 773,-406 893,-406 893,-406 899,-406 905,-412 905,-418 905,-418 905,-452 905,-452 905,-458 899,-464 893,-464"/>
<text text-anchor="middle" x="833" y="-432.2" font-family="Arial" font-size="11.00">Getincident</text>
</a>
</g>
</g>
<!-- GetIncident&#45;&gt;SearchUsers -->
<g id="edge8" class="edge">
<title>GetIncident&#45;&gt;SearchUsers</title>
<g id="a_edge8"><a xlink:title="Explicit: reported_by → user_id">
<path fill="none" stroke="black" stroke-width="1.5" d="M741.93,-1014.72C683,-799.96 686.29,-779.18 817.3,-471.79"/>
<polygon fill="black" stroke="black" stroke-width="1.5" points="820.06,-472.47 820.62,-464.01 814.9,-470.28 820.06,-472.47"/>
</a>
</g>
<text text-anchor="middle" x="781" y="-737.3" font-family="Arial" font-size="9.00">reported by → user id</text>
</g>
<!-- GetIncident&#45;&gt;SearchDepartments -->
<g id="edge9" class="edge">
<title>GetIncident&#45;&gt;SearchDepartments</title>
<g id="a_edge9"><a xlink:title="Explicit: department_id → department_id">
<path fill="none" stroke="black" stroke-width="1.5" d="M1275.73,-811.98C1189.13,-648.1 1169.12,-629.62 890.46,-468.22"/>
<polygon fill="black" stroke="black" stroke-width="1.5" points="891.74,-465.73 883.41,-464.14 888.93,-470.57 891.74,-465.73"/>
</a>
</g>
<text text-anchor="middle" x="1313.5" y="-635.8" font-family="Arial" font-size="9.00">department id</text>
</g>
<!-- GetIncidentComments -->
<g id="node6" class="node">
<title>GetIncidentComments</title>
<g id="a_node6"><a xlink:title="Read API: GetIncidentComments">
<path fill="lightgreen" stroke="black" d="M253,-261C253,-261 115,-261 115,-261 109,-261 103,-255 103,-249 103,-249 103,-215 103,-215 103,-209 109,-203 115,-203 115,-203 253,-203 253,-203 259,-203 265,-209 265,-215 265,-215 265,-249 265,-249 265,-255 259,-261 253,-261"/>
<text text-anchor="middle" x="184" y="-229.2" font-family="Arial" font-size="11.00">Getincidentcomments</text>
</a>
</g>
</g>
<!-- GetIncident&#45;&gt;GetIncidentComments -->
<g id="edge12" class="edge">
<title>GetIncident&#45;&gt;GetIncidentComments</title>
<g id="a_edge12"><a xlink:title="Explicit: incident_id → incident_id">
<path fill="none" stroke="black" stroke-width="1.5" d="M777.37,-405.93C479.02,-250.18 427.26,-227.7 273.6,-229.49"/>
<polygon fill="black" stroke="black" stroke-width="1.5" points="273.21,-226.7 265.25,-229.61 273.29,-232.3 273.21,-226.7"/>
</a>
</g>
<text text-anchor="middle" x="762.5" y="-331.3" font-family="Arial" font-size="9.00">incident id</text>
</g>
<!-- GetIncidentTasks -->
<g id="node7" class="node">
<title>GetIncidentTasks</title>
<g id="a_node7"><a xlink:title="Read API: GetIncidentTasks">
<path fill="lightgreen" stroke="black" d="M780,-261C780,-261 660,-261 660,-261 654,-261 648,-255 648,-249 648,-249 648,-215 648,-215 648,-209 654,-203 660,-203 660,-203 780,-203 780,-203 786,-203 792,-209 792,-215 792,-215 792,-249 792,-249 792,-255 786,-261 780,-261"/>
<text text-anchor="middle" x="720" y="-229.2" font-family="Arial" font-size="11.00">Getincidenttasks</text>
</a>
</g>
</g>
<!-- GetIncident&#45;&gt;GetIncidentTasks -->
<g id="edge13" class="edge">
<title>GetIncident&#45;&gt;GetIncidentTasks</title>
<g id="a_edge13"><a xlink:title="Explicit: incident_id → incident_id">
<path fill="none" stroke="black" stroke-width="1.5" d="M819.94,-405.71C781.98,-320.74 769.71,-295.01 749.4,-267.89"/>
<polygon fill="black" stroke="black" stroke-width="1.5" points="751.43,-265.95 744.34,-261.32 746.99,-269.36 751.43,-265.95"/>
</a>
</g>
<text text-anchor="middle" x="854.5" y="-331.3" font-family="Arial" font-size="9.00">incident id</text>
</g>
<!-- GetCategoryByName -->
<g id="node8" class="node">
<title>GetCategoryByName</title>
<g id="a_node8"><a xlink:title="Read API: GetCategoryByName">
<path fill="lightgreen" stroke="black" d="M1561.5,-261C1561.5,-261 1430.5,-261 1430.5,-261 1424.5,-261 1418.5,-255 1418.5,-249 1418.5,-249 1418.5,-215 1418.5,-215 1418.5,-209 1424.5,-203 1430.5,-203 1430.5,-203 1561.5,-203 1561.5,-203 1567.5,-203 1573.5,-209 1573.5,-215 1573.5,-215 1573.5,-249 1573.5,-249 1573.5,-255 1567.5,-261 1561.5,-261"/>
<text text-anchor="middle" x="1496" y="-229.2" font-family="Arial" font-size="11.00">Getcategorybyname</text>
</a>
</g>
</g>
<!-- GetIncident&#45;&gt;GetCategoryByName -->
<g id="edge10" class="edge">
<title>GetIncident&#45;&gt;GetCategoryByName</title>
<g id="a_edge10"><a xlink:title="Implicit: category_id → category_id">
<path fill="none" stroke="purple" stroke-width="1.5" stroke-dasharray="5,2" d="M888.84,-405.96C1197.34,-245.67 1247.52,-224.39 1410.09,-228.59"/>
<polygon fill="purple" stroke="purple" stroke-width="1.5" points="1410.35,-231.4 1418.42,-228.83 1410.51,-225.8 1410.35,-231.4"/>
</a>
</g>
<text text-anchor="middle" x="1469" y="-331.3" font-family="Arial" font-size="9.00">category id</text>
</g>
<!-- SearchSubcategories -->
<g id="node9" class="node">
<title>SearchSubcategories</title>
<g id="a_node9"><a xlink:title="Read API: SearchSubcategories">
<path fill="lightgreen" stroke="black" d="M1564,-58C1564,-58 1428,-58 1428,-58 1422,-58 1416,-52 1416,-46 1416,-46 1416,-12 1416,-12 1416,-6 1422,0 1428,0 1428,0 1564,0 1564,0 1570,0 1576,-6 1576,-12 1576,-12 1576,-46 1576,-46 1576,-52 1570,-58 1564,-58"/>
<text text-anchor="middle" x="1496" y="-26.2" font-family="Arial" font-size="11.00">Searchsubcategories</text>
</a>
</g>
</g>
<!-- GetIncident&#45;&gt;SearchSubcategories -->
<g id="edge11" class="edge">
<title>GetIncident&#45;&gt;SearchSubcategories</title>
<g id="a_edge11"><a xlink:title="Explicit: subcategory_id → subcategory_id">
<path fill="none" stroke="black" stroke-width="1.5" d="M868.15,-405.91C1191.39,-138.55 1240.43,-101.04 1407.7,-53.09"/>
<polygon fill="black" stroke="black" stroke-width="1.5" points="1408.83,-55.68 1415.76,-50.8 1407.3,-50.29 1408.83,-55.68"/>
</a>
</g>
<text text-anchor="middle" x="1258.5" y="-229.8" font-family="Arial" font-size="9.00">subcategory id</text>
</g>
<!-- SearchIncidents&#45;&gt;GetIncident -->
<g id="edge14" class="edge">
<title>SearchIncidents&#45;&gt;GetIncident</title>
<g id="a_edge14"><a xlink:title="Explicit: incident_id → incident_id">
<path fill="none" stroke="black" stroke-width="1.5" d="M991.73,-608.9C951.24,-520.51 936.45,-493.9 895.89,-468.34"/>
<polygon fill="black" stroke="black" stroke-width="1.5" points="897.16,-465.83 888.87,-464.07 894.25,-470.62 897.16,-465.83"/>
</a>
</g>
<text text-anchor="middle" x="950.5" y="-534.3" font-family="Arial" font-size="9.00">incident id</text>
</g>
<!-- GetIncidentComments&#45;&gt;SearchUsers -->
<g id="edge15" class="edge">
<title>GetIncidentComments&#45;&gt;SearchUsers</title>
<g id="a_edge15"><a xlink:title="Explicit: user_id → user_id">
<path fill="none" stroke="black" stroke-width="1.5" d="M711.85,-1014.94C286.61,-690.81 271.9,-670.02 191.47,-269.32"/>
<polygon fill="black" stroke="black" stroke-width="1.5" points="194.18,-268.59 189.86,-261.29 188.69,-269.69 194.18,-268.59"/>
</a>
</g>
<text text-anchor="middle" x="14" y="-635.8" font-family="Arial" font-size="9.00">user id</text>
</g>
<!-- GetIncidentTasks&#45;&gt;SearchUsers -->
<g id="edge16" class="edge">
<title>GetIncidentTasks&#45;&gt;SearchUsers</title>
<g id="a_edge16"><a xlink:title="Explicit: assigned_to → user_id">
<path fill="none" stroke="black" stroke-width="1.5" d="M736,-1014.82C596.71,-724.15 596.5,-702.65 710.22,-269.24"/>
<polygon fill="black" stroke="black" stroke-width="1.5" points="713.01,-269.65 712.33,-261.2 707.59,-268.23 713.01,-269.65"/>
</a>
</g>
<text text-anchor="middle" x="650.5" y="-635.8" font-family="Arial" font-size="9.00">assigned to → user id</text>
</g>
<!-- GetCategoryByName&#45;&gt;SearchSubcategories -->
<g id="edge17" class="edge">
<title>GetCategoryByName&#45;&gt;SearchSubcategories</title>
<g id="a_edge17"><a xlink:title="Explicit: category_id → category_id">
<path fill="none" stroke="black" stroke-width="1.5" d="M1502.48,-202.86C1519.93,-123.68 1522.41,-103.08 1509.94,-65.77"/>
<polygon fill="black" stroke="black" stroke-width="1.5" points="1512.53,-64.69 1507.24,-58.06 1507.24,-66.54 1512.53,-64.69"/>
</a>
</g>
<text text-anchor="middle" x="1519" y="-128.3" font-family="Arial" font-size="9.00">category id</text>
</g>
<!-- CreateUser -->
<g id="node10" class="node">
<title>CreateUser</title>
<g id="a_node10"><a xlink:title="Create/Update API: CreateUser">
<path fill="lightcoral" stroke="black" d="M1299,-1479C1299,-1479 1179,-1479 1179,-1479 1173,-1479 1167,-1473 1167,-1467 1167,-1467 1167,-1433 1167,-1433 1167,-1427 1173,-1421 1179,-1421 1179,-1421 1299,-1421 1299,-1421 1305,-1421 1311,-1427 1311,-1433 1311,-1433 1311,-1467 1311,-1467 1311,-1473 1305,-1479 1299,-1479"/>
<text text-anchor="middle" x="1239" y="-1447.2" font-family="Arial" font-size="11.00">Createuser</text>
</a>
</g>
</g>
<!-- CreateUser&#45;&gt;GetCompanyByName -->
<g id="edge18" class="edge">
<title>CreateUser&#45;&gt;GetCompanyByName</title>
<g id="a_edge18"><a xlink:title="Implicit: company_id → company_id">
<path fill="none" stroke="purple" stroke-width="1.5" stroke-dasharray="5,2" d="M1213.28,-1420.81C1187.89,-1391.12 1173.12,-1369.13 1118.09,-1283.12"/>
<polygon fill="purple" stroke="purple" stroke-width="1.5" points="1120.37,-1281.5 1113.7,-1276.26 1115.65,-1284.51 1120.37,-1281.5"/>
</a>
</g>
<text text-anchor="middle" x="1198" y="-1346.3" font-family="Arial" font-size="9.00">company id</text>
</g>
<!-- CreateUser&#45;&gt;SearchDepartments -->
<g id="edge19" class="edge">
<title>CreateUser&#45;&gt;SearchDepartments</title>
<g id="a_edge19"><a xlink:title="Implicit: department_id → department_id">
<path fill="none" stroke="purple" stroke-width="1.5" stroke-dasharray="5,2" d="M1253.84,-1420.94C1346.28,-1239.23 1347,-1216.65 1296.55,-878.18"/>
<polygon fill="purple" stroke="purple" stroke-width="1.5" points="1299.3,-877.63 1295.35,-870.13 1293.76,-878.46 1299.3,-877.63"/>
</a>
</g>
<text text-anchor="middle" x="1401.5" y="-1143.3" font-family="Arial" font-size="9.00">department id</text>
</g>
<!-- CreateIncident -->
<g id="node11" class="node">
<title>CreateIncident</title>
<g id="a_node11"><a xlink:title="Create/Update API: CreateIncident">
<path fill="lightcoral" stroke="black" d="M1635,-1276C1635,-1276 1515,-1276 1515,-1276 1509,-1276 1503,-1270 1503,-1264 1503,-1264 1503,-1230 1503,-1230 1503,-1224 1509,-1218 1515,-1218 1515,-1218 1635,-1218 1635,-1218 1641,-1218 1647,-1224 1647,-1230 1647,-1230 1647,-1264 1647,-1264 1647,-1270 1641,-1276 1635,-1276"/>
<text text-anchor="middle" x="1575" y="-1244.2" font-family="Arial" font-size="11.00">Createincident</text>
</a>
</g>
</g>
<!-- CreateIncident&#45;&gt;SearchUsers -->
<g id="edge20" class="edge">
<title>CreateIncident&#45;&gt;SearchUsers</title>
<g id="a_edge20"><a xlink:title="Implicit: user_id → reported_by">
<path fill="none" stroke="purple" stroke-width="1.5" stroke-dasharray="5,2" d="M1502.76,-1255.37C1269.88,-1281.11 1222.88,-1266.01 819.31,-1076.57"/>
<polygon fill="purple" stroke="purple" stroke-width="1.5" points="820.26,-1073.93 811.83,-1073.06 817.88,-1079 820.26,-1073.93"/>
</a>
</g>
<text text-anchor="middle" x="1525" y="-1143.3" font-family="Arial" font-size="9.00">user id → reported by</text>
</g>
<!-- CreateIncident&#45;&gt;GetCategoryByName -->
<g id="edge21" class="edge">
<title>CreateIncident&#45;&gt;GetCategoryByName</title>
<g id="a_edge21"><a xlink:title="Implicit: category_id → category_id">
<path fill="none" stroke="purple" stroke-width="1.5" stroke-dasharray="5,2" d="M1584.43,-1217.84C1735.11,-751.41 1734.5,-730.38 1513.63,-268.82"/>
<polygon fill="purple" stroke="purple" stroke-width="1.5" points="1516.01,-267.31 1510.04,-261.31 1510.96,-269.73 1516.01,-267.31"/>
</a>
</g>
<text text-anchor="middle" x="1570" y="-737.3" font-family="Arial" font-size="9.00">category id</text>
</g>
<!-- CreateIncident&#45;&gt;SearchSubcategories -->
<g id="edge22" class="edge">
<title>CreateIncident&#45;&gt;SearchSubcategories</title>
<g id="a_edge22"><a xlink:title="Implicit: subcategory_id → subcategory_id">
<path fill="none" stroke="purple" stroke-width="1.5" stroke-dasharray="5,2" d="M1584.16,-1217.59C1772.27,-613.25 1772.37,-591.61 1513.95,-65.51"/>
<polygon fill="purple" stroke="purple" stroke-width="1.5" points="1516.36,-64.07 1510.32,-58.13 1511.33,-66.54 1516.36,-64.07"/>
</a>
</g>
<text text-anchor="middle" x="1793.5" y="-635.8" font-family="Arial" font-size="9.00">subcategory id</text>
</g>
<!-- AddIncidentComment -->
<g id="node12" class="node">
<title>AddIncidentComment</title>
<g id="a_node12"><a xlink:title="Create/Update API: AddIncidentComment">
<path fill="lightcoral" stroke="black" d="M351.5,-1276C351.5,-1276 216.5,-1276 216.5,-1276 210.5,-1276 204.5,-1270 204.5,-1264 204.5,-1264 204.5,-1230 204.5,-1230 204.5,-1224 210.5,-1218 216.5,-1218 216.5,-1218 351.5,-1218 351.5,-1218 357.5,-1218 363.5,-1224 363.5,-1230 363.5,-1230 363.5,-1264 363.5,-1264 363.5,-1270 357.5,-1276 351.5,-1276"/>
<text text-anchor="middle" x="284" y="-1244.2" font-family="Arial" font-size="11.00">Addincidentcomment</text>
</a>
</g>
</g>
<!-- AddIncidentComment&#45;&gt;SearchUsers -->
<g id="edge24" class="edge">
<title>AddIncidentComment&#45;&gt;SearchUsers</title>
<g id="a_edge24"><a xlink:title="Implicit: user_id → user_id">
<path fill="none" stroke="purple" stroke-width="1.5" stroke-dasharray="5,2" d="M363.53,-1233.99C452.57,-1216.9 498.72,-1192.5 693.87,-1077.21"/>
<polygon fill="purple" stroke="purple" stroke-width="1.5" points="695.41,-1079.55 700.87,-1073.07 692.56,-1074.73 695.41,-1079.55"/>
</a>
</g>
<text text-anchor="middle" x="365" y="-1143.3" font-family="Arial" font-size="9.00">user id</text>
</g>
<!-- AddIncidentComment&#45;&gt;GetIncident -->
<g id="edge23" class="edge">
<title>AddIncidentComment&#45;&gt;GetIncident</title>
<g id="a_edge23"><a xlink:title="Implicit: incident_id → incident_id">
<path fill="none" stroke="purple" stroke-width="1.5" stroke-dasharray="5,2" d="M291.39,-1217.93C370.07,-908.89 384.38,-888.35 798.29,-470.07"/>
<polygon fill="purple" stroke="purple" stroke-width="1.5" points="800.46,-471.85 804.1,-464.2 796.48,-467.91 800.46,-471.85"/>
</a>
</g>
<text text-anchor="middle" x="237.5" y="-838.8" font-family="Arial" font-size="9.00">incident id</text>
</g>
<!-- CreateIncidentTask -->
<g id="node13" class="node">
<title>CreateIncidentTask</title>
<g id="a_node13"><a xlink:title="Create/Update API: CreateIncidentTask">
<path fill="lightcoral" stroke="black" d="M752,-1276C752,-1276 628,-1276 628,-1276 622,-1276 616,-1270 616,-1264 616,-1264 616,-1230 616,-1230 616,-1224 622,-1218 628,-1218 628,-1218 752,-1218 752,-1218 758,-1218 764,-1224 764,-1230 764,-1230 764,-1264 764,-1264 764,-1270 758,-1276 752,-1276"/>
<text text-anchor="middle" x="690" y="-1244.2" font-family="Arial" font-size="11.00">Createincidenttask</text>
</a>
</g>
</g>
<!-- CreateIncidentTask&#45;&gt;SearchUsers -->
<g id="edge26" class="edge">
<title>CreateIncidentTask&#45;&gt;SearchUsers</title>
<g id="a_edge26"><a xlink:title="Implicit: user_id → assigned_to">
<path fill="none" stroke="purple" stroke-width="1.5" stroke-dasharray="5,2" d="M697.07,-1217.89C705.32,-1184.71 711.56,-1164.35 738.22,-1080.87"/>
<polygon fill="purple" stroke="purple" stroke-width="1.5" points="740.92,-1081.6 740.69,-1073.13 735.59,-1079.9 740.92,-1081.6"/>
</a>
</g>
<text text-anchor="middle" x="754.5" y="-1143.3" font-family="Arial" font-size="9.00">user id → assigned to</text>
</g>
<!-- CreateIncidentTask&#45;&gt;GetIncident -->
<g id="edge25" class="edge">
<title>CreateIncidentTask&#45;&gt;GetIncident</title>
<g id="a_edge25"><a xlink:title="Implicit: incident_id → incident_id">
<path fill="none" stroke="purple" stroke-width="1.5" stroke-dasharray="5,2" d="M684.91,-1217.65C639.96,-957.01 644.94,-934.3 819.23,-471.54"/>
<polygon fill="purple" stroke="purple" stroke-width="1.5" points="821.87,-472.48 822.07,-464 816.63,-470.5 821.87,-472.48"/>
</a>
</g>
<text text-anchor="middle" x="415.5" y="-838.8" font-family="Arial" font-size="9.00">incident id</text>
</g>
</g>
</svg>
